<mxfile host="app.diagrams.net" agent="Mozilla/5.0 (Windows NT 10.0; Win64; x64) AppleWebKit/537.36 (KHTML, like Gecko) Chrome/140.0.0.0 Safari/537.36" version="28.1.2">
  <diagram name="หน้า-1" id="4ZGjiTAT3x41URLysfpL">
    <mxGraphModel dx="1678" dy="874" grid="1" gridSize="10" guides="1" tooltips="1" connect="1" arrows="1" fold="1" page="1" pageScale="1" pageWidth="827" pageHeight="1169" math="0" shadow="0">
      <root>
        <mxCell id="0" />
        <mxCell id="1" parent="0" />
        <mxCell id="IYhv0B1hFavdMKHums5u-44" style="edgeStyle=orthogonalEdgeStyle;rounded=0;orthogonalLoop=1;jettySize=auto;html=1;exitX=0.5;exitY=1;exitDx=0;exitDy=0;" edge="1" parent="1" source="IYhv0B1hFavdMKHums5u-1" target="IYhv0B1hFavdMKHums5u-43">
          <mxGeometry relative="1" as="geometry" />
        </mxCell>
        <mxCell id="IYhv0B1hFavdMKHums5u-1" value="start" style="ellipse;whiteSpace=wrap;html=1;" vertex="1" parent="1">
          <mxGeometry x="340" y="10" width="120" height="80" as="geometry" />
        </mxCell>
        <mxCell id="IYhv0B1hFavdMKHums5u-17" style="edgeStyle=orthogonalEdgeStyle;rounded=0;orthogonalLoop=1;jettySize=auto;html=1;exitX=0.5;exitY=1;exitDx=0;exitDy=0;" edge="1" parent="1" source="IYhv0B1hFavdMKHums5u-7">
          <mxGeometry relative="1" as="geometry">
            <mxPoint x="400" y="400" as="targetPoint" />
            <Array as="points">
              <mxPoint x="400" y="390" />
              <mxPoint x="400" y="390" />
            </Array>
          </mxGeometry>
        </mxCell>
        <mxCell id="IYhv0B1hFavdMKHums5u-7" value="" style="ellipse;whiteSpace=wrap;html=1;aspect=fixed;" vertex="1" parent="1">
          <mxGeometry x="395" y="370" width="10" height="10" as="geometry" />
        </mxCell>
        <mxCell id="IYhv0B1hFavdMKHums5u-18" style="edgeStyle=orthogonalEdgeStyle;rounded=0;orthogonalLoop=1;jettySize=auto;html=1;exitX=0.5;exitY=1;exitDx=0;exitDy=0;" edge="1" parent="1" source="IYhv0B1hFavdMKHums5u-11">
          <mxGeometry relative="1" as="geometry">
            <mxPoint x="400" y="510" as="targetPoint" />
          </mxGeometry>
        </mxCell>
        <mxCell id="IYhv0B1hFavdMKHums5u-11" value="&amp;nbsp;i &amp;lt; n&amp;nbsp;" style="rhombus;whiteSpace=wrap;html=1;" vertex="1" parent="1">
          <mxGeometry x="345" y="400" width="110" height="80" as="geometry" />
        </mxCell>
        <mxCell id="IYhv0B1hFavdMKHums5u-13" value="true" style="text;html=1;align=center;verticalAlign=middle;resizable=0;points=[];autosize=1;strokeColor=none;fillColor=none;" vertex="1" parent="1">
          <mxGeometry x="360" y="470" width="40" height="30" as="geometry" />
        </mxCell>
        <mxCell id="IYhv0B1hFavdMKHums5u-16" style="edgeStyle=orthogonalEdgeStyle;rounded=0;orthogonalLoop=1;jettySize=auto;html=1;exitX=0.5;exitY=1;exitDx=0;exitDy=0;" edge="1" parent="1" source="IYhv0B1hFavdMKHums5u-15">
          <mxGeometry relative="1" as="geometry">
            <mxPoint x="400" y="370" as="targetPoint" />
          </mxGeometry>
        </mxCell>
        <mxCell id="IYhv0B1hFavdMKHums5u-15" value="i = 0&amp;nbsp;" style="rounded=0;whiteSpace=wrap;html=1;" vertex="1" parent="1">
          <mxGeometry x="340" y="290" width="120" height="60" as="geometry" />
        </mxCell>
        <mxCell id="IYhv0B1hFavdMKHums5u-21" style="edgeStyle=orthogonalEdgeStyle;rounded=0;orthogonalLoop=1;jettySize=auto;html=1;exitX=0.5;exitY=1;exitDx=0;exitDy=0;" edge="1" parent="1" source="IYhv0B1hFavdMKHums5u-20">
          <mxGeometry relative="1" as="geometry">
            <mxPoint x="399.7586206896551" y="600" as="targetPoint" />
          </mxGeometry>
        </mxCell>
        <mxCell id="IYhv0B1hFavdMKHums5u-20" value="show&quot;Enter value&quot;" style="shape=parallelogram;perimeter=parallelogramPerimeter;whiteSpace=wrap;html=1;fixedSize=1;" vertex="1" parent="1">
          <mxGeometry x="340" y="510" width="120" height="60" as="geometry" />
        </mxCell>
        <mxCell id="IYhv0B1hFavdMKHums5u-35" style="edgeStyle=orthogonalEdgeStyle;rounded=0;orthogonalLoop=1;jettySize=auto;html=1;exitX=0.5;exitY=1;exitDx=0;exitDy=0;" edge="1" parent="1" source="IYhv0B1hFavdMKHums5u-22">
          <mxGeometry relative="1" as="geometry">
            <mxPoint x="400" y="690" as="targetPoint" />
          </mxGeometry>
        </mxCell>
        <mxCell id="IYhv0B1hFavdMKHums5u-22" value="i = i + 1" style="rounded=0;whiteSpace=wrap;html=1;" vertex="1" parent="1">
          <mxGeometry x="340" y="600" width="120" height="60" as="geometry" />
        </mxCell>
        <mxCell id="IYhv0B1hFavdMKHums5u-37" style="edgeStyle=orthogonalEdgeStyle;rounded=0;orthogonalLoop=1;jettySize=auto;html=1;exitX=0.5;exitY=1;exitDx=0;exitDy=0;" edge="1" parent="1" source="IYhv0B1hFavdMKHums5u-36">
          <mxGeometry relative="1" as="geometry">
            <mxPoint x="400" y="780" as="targetPoint" />
          </mxGeometry>
        </mxCell>
        <mxCell id="IYhv0B1hFavdMKHums5u-36" value="show&quot;Index&quot;" style="shape=parallelogram;perimeter=parallelogramPerimeter;whiteSpace=wrap;html=1;fixedSize=1;" vertex="1" parent="1">
          <mxGeometry x="340" y="690" width="120" height="60" as="geometry" />
        </mxCell>
        <mxCell id="IYhv0B1hFavdMKHums5u-40" style="edgeStyle=orthogonalEdgeStyle;rounded=0;orthogonalLoop=1;jettySize=auto;html=1;exitX=0.5;exitY=1;exitDx=0;exitDy=0;" edge="1" parent="1" source="IYhv0B1hFavdMKHums5u-38">
          <mxGeometry relative="1" as="geometry">
            <mxPoint x="400" y="870" as="targetPoint" />
          </mxGeometry>
        </mxCell>
        <mxCell id="IYhv0B1hFavdMKHums5u-53" style="edgeStyle=orthogonalEdgeStyle;rounded=0;orthogonalLoop=1;jettySize=auto;html=1;exitX=0;exitY=0.5;exitDx=0;exitDy=0;entryX=0;entryY=0.5;entryDx=0;entryDy=0;" edge="1" parent="1" source="IYhv0B1hFavdMKHums5u-38" target="IYhv0B1hFavdMKHums5u-7">
          <mxGeometry relative="1" as="geometry">
            <Array as="points">
              <mxPoint x="290" y="810" />
              <mxPoint x="290" y="375" />
            </Array>
          </mxGeometry>
        </mxCell>
        <mxCell id="IYhv0B1hFavdMKHums5u-38" value="show&quot;Array&quot;" style="shape=parallelogram;perimeter=parallelogramPerimeter;whiteSpace=wrap;html=1;fixedSize=1;" vertex="1" parent="1">
          <mxGeometry x="340" y="780" width="120" height="60" as="geometry" />
        </mxCell>
        <mxCell id="IYhv0B1hFavdMKHums5u-49" style="edgeStyle=orthogonalEdgeStyle;rounded=0;orthogonalLoop=1;jettySize=auto;html=1;exitX=0.5;exitY=1;exitDx=0;exitDy=0;" edge="1" parent="1" source="IYhv0B1hFavdMKHums5u-42">
          <mxGeometry relative="1" as="geometry">
            <mxPoint x="400" y="980" as="targetPoint" />
          </mxGeometry>
        </mxCell>
        <mxCell id="IYhv0B1hFavdMKHums5u-51" style="edgeStyle=orthogonalEdgeStyle;rounded=0;orthogonalLoop=1;jettySize=auto;html=1;exitX=1;exitY=0.5;exitDx=0;exitDy=0;" edge="1" parent="1" source="IYhv0B1hFavdMKHums5u-42" target="IYhv0B1hFavdMKHums5u-52">
          <mxGeometry relative="1" as="geometry">
            <mxPoint x="500" y="910" as="targetPoint" />
          </mxGeometry>
        </mxCell>
        <mxCell id="IYhv0B1hFavdMKHums5u-42" value="isPrime?" style="rhombus;whiteSpace=wrap;html=1;" vertex="1" parent="1">
          <mxGeometry x="345" y="870" width="110" height="80" as="geometry" />
        </mxCell>
        <mxCell id="IYhv0B1hFavdMKHums5u-46" style="edgeStyle=orthogonalEdgeStyle;rounded=0;orthogonalLoop=1;jettySize=auto;html=1;exitX=0.5;exitY=1;exitDx=0;exitDy=0;entryX=0.5;entryY=0;entryDx=0;entryDy=0;" edge="1" parent="1" source="IYhv0B1hFavdMKHums5u-43" target="IYhv0B1hFavdMKHums5u-45">
          <mxGeometry relative="1" as="geometry" />
        </mxCell>
        <mxCell id="IYhv0B1hFavdMKHums5u-43" value="isPrime" style="shape=process;whiteSpace=wrap;html=1;backgroundOutline=1;" vertex="1" parent="1">
          <mxGeometry x="340" y="110" width="120" height="60" as="geometry" />
        </mxCell>
        <mxCell id="IYhv0B1hFavdMKHums5u-47" style="edgeStyle=orthogonalEdgeStyle;rounded=0;orthogonalLoop=1;jettySize=auto;html=1;exitX=0.5;exitY=1;exitDx=0;exitDy=0;entryX=0.5;entryY=0;entryDx=0;entryDy=0;" edge="1" parent="1" source="IYhv0B1hFavdMKHums5u-45" target="IYhv0B1hFavdMKHums5u-15">
          <mxGeometry relative="1" as="geometry" />
        </mxCell>
        <mxCell id="IYhv0B1hFavdMKHums5u-45" value="รับค่า n" style="rounded=0;whiteSpace=wrap;html=1;" vertex="1" parent="1">
          <mxGeometry x="340" y="200" width="120" height="60" as="geometry" />
        </mxCell>
        <mxCell id="IYhv0B1hFavdMKHums5u-50" value="true" style="text;html=1;align=center;verticalAlign=middle;resizable=0;points=[];autosize=1;strokeColor=none;fillColor=none;" vertex="1" parent="1">
          <mxGeometry x="360" y="938" width="40" height="30" as="geometry" />
        </mxCell>
        <mxCell id="IYhv0B1hFavdMKHums5u-52" value="show&quot;#&quot;" style="shape=parallelogram;perimeter=parallelogramPerimeter;whiteSpace=wrap;html=1;fixedSize=1;" vertex="1" parent="1">
          <mxGeometry x="500" y="880" width="120" height="60" as="geometry" />
        </mxCell>
        <mxCell id="IYhv0B1hFavdMKHums5u-54" value="end" style="ellipse;whiteSpace=wrap;html=1;" vertex="1" parent="1">
          <mxGeometry x="340" y="980" width="120" height="80" as="geometry" />
        </mxCell>
        <mxCell id="IYhv0B1hFavdMKHums5u-57" value="isPrime" style="swimlane;whiteSpace=wrap;html=1;" vertex="1" parent="1">
          <mxGeometry x="520" y="20" width="300" height="840" as="geometry" />
        </mxCell>
        <mxCell id="IYhv0B1hFavdMKHums5u-61" style="edgeStyle=orthogonalEdgeStyle;rounded=0;orthogonalLoop=1;jettySize=auto;html=1;exitX=0.5;exitY=1;exitDx=0;exitDy=0;entryX=0.5;entryY=0;entryDx=0;entryDy=0;" edge="1" parent="IYhv0B1hFavdMKHums5u-57" source="IYhv0B1hFavdMKHums5u-59" target="IYhv0B1hFavdMKHums5u-60">
          <mxGeometry relative="1" as="geometry" />
        </mxCell>
        <mxCell id="IYhv0B1hFavdMKHums5u-59" value="start" style="ellipse;whiteSpace=wrap;html=1;" vertex="1" parent="IYhv0B1hFavdMKHums5u-57">
          <mxGeometry x="105" y="30" width="90" height="40" as="geometry" />
        </mxCell>
        <mxCell id="IYhv0B1hFavdMKHums5u-62" style="edgeStyle=orthogonalEdgeStyle;rounded=0;orthogonalLoop=1;jettySize=auto;html=1;exitX=0.5;exitY=1;exitDx=0;exitDy=0;" edge="1" parent="IYhv0B1hFavdMKHums5u-57" source="IYhv0B1hFavdMKHums5u-60">
          <mxGeometry relative="1" as="geometry">
            <mxPoint x="150.04761904761904" y="140" as="targetPoint" />
          </mxGeometry>
        </mxCell>
        <mxCell id="IYhv0B1hFavdMKHums5u-60" value="รับค่า x" style="rounded=0;whiteSpace=wrap;html=1;" vertex="1" parent="IYhv0B1hFavdMKHums5u-57">
          <mxGeometry x="115" y="90" width="70" height="30" as="geometry" />
        </mxCell>
        <mxCell id="IYhv0B1hFavdMKHums5u-64" style="edgeStyle=orthogonalEdgeStyle;rounded=0;orthogonalLoop=1;jettySize=auto;html=1;exitX=0.5;exitY=1;exitDx=0;exitDy=0;" edge="1" parent="IYhv0B1hFavdMKHums5u-57" source="IYhv0B1hFavdMKHums5u-63">
          <mxGeometry relative="1" as="geometry">
            <mxPoint x="150" y="240" as="targetPoint" />
          </mxGeometry>
        </mxCell>
        <mxCell id="IYhv0B1hFavdMKHums5u-67" style="edgeStyle=orthogonalEdgeStyle;rounded=0;orthogonalLoop=1;jettySize=auto;html=1;exitX=0;exitY=0.5;exitDx=0;exitDy=0;" edge="1" parent="IYhv0B1hFavdMKHums5u-57" source="IYhv0B1hFavdMKHums5u-63">
          <mxGeometry relative="1" as="geometry">
            <mxPoint x="70" y="175.04761904761904" as="targetPoint" />
          </mxGeometry>
        </mxCell>
        <mxCell id="IYhv0B1hFavdMKHums5u-63" value="x ≤ 1?" style="rhombus;whiteSpace=wrap;html=1;" vertex="1" parent="IYhv0B1hFavdMKHums5u-57">
          <mxGeometry x="92.5" y="140" width="115" height="70" as="geometry" />
        </mxCell>
        <mxCell id="IYhv0B1hFavdMKHums5u-66" value="false" style="text;html=1;align=center;verticalAlign=middle;resizable=0;points=[];autosize=1;strokeColor=none;fillColor=none;" vertex="1" parent="IYhv0B1hFavdMKHums5u-57">
          <mxGeometry x="105" y="200" width="50" height="30" as="geometry" />
        </mxCell>
        <mxCell id="IYhv0B1hFavdMKHums5u-68" value="return" style="rounded=0;whiteSpace=wrap;html=1;" vertex="1" parent="IYhv0B1hFavdMKHums5u-57">
          <mxGeometry x="10" y="160" width="60" height="30" as="geometry" />
        </mxCell>
        <mxCell id="IYhv0B1hFavdMKHums5u-70" style="edgeStyle=orthogonalEdgeStyle;rounded=0;orthogonalLoop=1;jettySize=auto;html=1;exitX=0.5;exitY=1;exitDx=0;exitDy=0;" edge="1" parent="IYhv0B1hFavdMKHums5u-57" source="IYhv0B1hFavdMKHums5u-69">
          <mxGeometry relative="1" as="geometry">
            <mxPoint x="150.04761904761904" y="340" as="targetPoint" />
          </mxGeometry>
        </mxCell>
        <mxCell id="IYhv0B1hFavdMKHums5u-72" style="edgeStyle=orthogonalEdgeStyle;rounded=0;orthogonalLoop=1;jettySize=auto;html=1;exitX=0;exitY=0.5;exitDx=0;exitDy=0;" edge="1" parent="IYhv0B1hFavdMKHums5u-57" source="IYhv0B1hFavdMKHums5u-69">
          <mxGeometry relative="1" as="geometry">
            <mxPoint x="70" y="275.04761904761904" as="targetPoint" />
          </mxGeometry>
        </mxCell>
        <mxCell id="IYhv0B1hFavdMKHums5u-69" value="x == 2?" style="rhombus;whiteSpace=wrap;html=1;" vertex="1" parent="IYhv0B1hFavdMKHums5u-57">
          <mxGeometry x="92.5" y="240" width="115" height="70" as="geometry" />
        </mxCell>
        <mxCell id="IYhv0B1hFavdMKHums5u-73" value="return" style="rounded=0;whiteSpace=wrap;html=1;" vertex="1" parent="IYhv0B1hFavdMKHums5u-57">
          <mxGeometry x="10" y="260" width="60" height="30" as="geometry" />
        </mxCell>
        <mxCell id="IYhv0B1hFavdMKHums5u-75" style="edgeStyle=orthogonalEdgeStyle;rounded=0;orthogonalLoop=1;jettySize=auto;html=1;exitX=0.5;exitY=1;exitDx=0;exitDy=0;" edge="1" parent="IYhv0B1hFavdMKHums5u-57" source="IYhv0B1hFavdMKHums5u-74">
          <mxGeometry relative="1" as="geometry">
            <mxPoint x="150.04761904761904" y="440" as="targetPoint" />
          </mxGeometry>
        </mxCell>
        <mxCell id="IYhv0B1hFavdMKHums5u-80" style="edgeStyle=orthogonalEdgeStyle;rounded=0;orthogonalLoop=1;jettySize=auto;html=1;exitX=0;exitY=0.5;exitDx=0;exitDy=0;" edge="1" parent="IYhv0B1hFavdMKHums5u-57" source="IYhv0B1hFavdMKHums5u-74">
          <mxGeometry relative="1" as="geometry">
            <mxPoint x="70" y="375.04761904761904" as="targetPoint" />
          </mxGeometry>
        </mxCell>
        <mxCell id="IYhv0B1hFavdMKHums5u-74" value="x % 2 == 0?" style="rhombus;whiteSpace=wrap;html=1;" vertex="1" parent="IYhv0B1hFavdMKHums5u-57">
          <mxGeometry x="92.5" y="340" width="115" height="70" as="geometry" />
        </mxCell>
        <mxCell id="IYhv0B1hFavdMKHums5u-81" value="return" style="rounded=0;whiteSpace=wrap;html=1;" vertex="1" parent="IYhv0B1hFavdMKHums5u-57">
          <mxGeometry x="10" y="360" width="60" height="30" as="geometry" />
        </mxCell>
        <mxCell id="IYhv0B1hFavdMKHums5u-82" value="true" style="text;html=1;align=center;verticalAlign=middle;resizable=0;points=[];autosize=1;strokeColor=none;fillColor=none;" vertex="1" parent="IYhv0B1hFavdMKHums5u-57">
          <mxGeometry x="70" y="350" width="40" height="30" as="geometry" />
        </mxCell>
        <mxCell id="IYhv0B1hFavdMKHums5u-88" style="edgeStyle=orthogonalEdgeStyle;rounded=0;orthogonalLoop=1;jettySize=auto;html=1;exitX=0.5;exitY=1;exitDx=0;exitDy=0;" edge="1" parent="IYhv0B1hFavdMKHums5u-57" source="IYhv0B1hFavdMKHums5u-84">
          <mxGeometry relative="1" as="geometry">
            <mxPoint x="150.04761904761904" y="490" as="targetPoint" />
          </mxGeometry>
        </mxCell>
        <mxCell id="IYhv0B1hFavdMKHums5u-84" value="i = 3" style="rounded=0;whiteSpace=wrap;html=1;" vertex="1" parent="IYhv0B1hFavdMKHums5u-57">
          <mxGeometry x="120" y="440" width="60" height="30" as="geometry" />
        </mxCell>
        <mxCell id="IYhv0B1hFavdMKHums5u-91" style="edgeStyle=orthogonalEdgeStyle;rounded=0;orthogonalLoop=1;jettySize=auto;html=1;exitX=0.5;exitY=1;exitDx=0;exitDy=0;" edge="1" parent="IYhv0B1hFavdMKHums5u-57" source="IYhv0B1hFavdMKHums5u-86">
          <mxGeometry relative="1" as="geometry">
            <mxPoint x="150.04761904761904" y="610" as="targetPoint" />
          </mxGeometry>
        </mxCell>
        <mxCell id="IYhv0B1hFavdMKHums5u-105" style="edgeStyle=orthogonalEdgeStyle;rounded=0;orthogonalLoop=1;jettySize=auto;html=1;exitX=1;exitY=0.5;exitDx=0;exitDy=0;entryX=0.5;entryY=0;entryDx=0;entryDy=0;" edge="1" parent="IYhv0B1hFavdMKHums5u-57" source="IYhv0B1hFavdMKHums5u-86" target="IYhv0B1hFavdMKHums5u-92">
          <mxGeometry relative="1" as="geometry">
            <Array as="points">
              <mxPoint x="240" y="555" />
              <mxPoint x="240" y="660" />
              <mxPoint x="150" y="660" />
            </Array>
          </mxGeometry>
        </mxCell>
        <mxCell id="IYhv0B1hFavdMKHums5u-86" value="i &amp;lt;= x?" style="rhombus;whiteSpace=wrap;html=1;" vertex="1" parent="IYhv0B1hFavdMKHums5u-57">
          <mxGeometry x="92.5" y="520" width="115" height="70" as="geometry" />
        </mxCell>
        <mxCell id="IYhv0B1hFavdMKHums5u-90" style="edgeStyle=orthogonalEdgeStyle;rounded=0;orthogonalLoop=1;jettySize=auto;html=1;exitX=0.5;exitY=1;exitDx=0;exitDy=0;" edge="1" parent="IYhv0B1hFavdMKHums5u-57" source="IYhv0B1hFavdMKHums5u-89">
          <mxGeometry relative="1" as="geometry">
            <mxPoint x="150.04761904761904" y="520" as="targetPoint" />
          </mxGeometry>
        </mxCell>
        <mxCell id="IYhv0B1hFavdMKHums5u-89" value="" style="ellipse;whiteSpace=wrap;html=1;aspect=fixed;" vertex="1" parent="IYhv0B1hFavdMKHums5u-57">
          <mxGeometry x="145" y="490" width="10" height="10" as="geometry" />
        </mxCell>
        <mxCell id="IYhv0B1hFavdMKHums5u-96" style="edgeStyle=orthogonalEdgeStyle;rounded=0;orthogonalLoop=1;jettySize=auto;html=1;exitX=0.5;exitY=1;exitDx=0;exitDy=0;" edge="1" parent="IYhv0B1hFavdMKHums5u-57" source="IYhv0B1hFavdMKHums5u-92">
          <mxGeometry relative="1" as="geometry">
            <mxPoint x="150" y="780" as="targetPoint" />
          </mxGeometry>
        </mxCell>
        <mxCell id="IYhv0B1hFavdMKHums5u-92" value="x % i == 0?" style="rhombus;whiteSpace=wrap;html=1;" vertex="1" parent="IYhv0B1hFavdMKHums5u-57">
          <mxGeometry x="92.5" y="680" width="115" height="70" as="geometry" />
        </mxCell>
        <mxCell id="IYhv0B1hFavdMKHums5u-98" value="end" style="ellipse;whiteSpace=wrap;html=1;" vertex="1" parent="IYhv0B1hFavdMKHums5u-57">
          <mxGeometry x="105" y="780" width="90" height="40" as="geometry" />
        </mxCell>
        <mxCell id="IYhv0B1hFavdMKHums5u-100" value="true" style="text;html=1;align=center;verticalAlign=middle;resizable=0;points=[];autosize=1;strokeColor=none;fillColor=none;" vertex="1" parent="IYhv0B1hFavdMKHums5u-57">
          <mxGeometry x="115" y="740" width="40" height="30" as="geometry" />
        </mxCell>
        <mxCell id="IYhv0B1hFavdMKHums5u-104" style="edgeStyle=orthogonalEdgeStyle;rounded=0;orthogonalLoop=1;jettySize=auto;html=1;exitX=0.5;exitY=1;exitDx=0;exitDy=0;entryX=0;entryY=0.5;entryDx=0;entryDy=0;" edge="1" parent="IYhv0B1hFavdMKHums5u-57" source="IYhv0B1hFavdMKHums5u-102" target="IYhv0B1hFavdMKHums5u-89">
          <mxGeometry relative="1" as="geometry">
            <Array as="points">
              <mxPoint x="150" y="650" />
              <mxPoint x="80" y="650" />
              <mxPoint x="80" y="495" />
            </Array>
          </mxGeometry>
        </mxCell>
        <mxCell id="IYhv0B1hFavdMKHums5u-102" value="i += 2" style="rounded=0;whiteSpace=wrap;html=1;" vertex="1" parent="IYhv0B1hFavdMKHums5u-57">
          <mxGeometry x="120" y="610" width="60" height="30" as="geometry" />
        </mxCell>
        <mxCell id="IYhv0B1hFavdMKHums5u-107" value="true" style="text;html=1;align=center;verticalAlign=middle;resizable=0;points=[];autosize=1;strokeColor=none;fillColor=none;" vertex="1" parent="IYhv0B1hFavdMKHums5u-57">
          <mxGeometry x="80" y="630" width="40" height="30" as="geometry" />
        </mxCell>
        <mxCell id="IYhv0B1hFavdMKHums5u-108" value="false" style="text;html=1;align=center;verticalAlign=middle;resizable=0;points=[];autosize=1;strokeColor=none;fillColor=none;" vertex="1" parent="IYhv0B1hFavdMKHums5u-57">
          <mxGeometry x="195" y="530" width="50" height="30" as="geometry" />
        </mxCell>
        <mxCell id="IYhv0B1hFavdMKHums5u-109" style="edgeStyle=orthogonalEdgeStyle;rounded=0;orthogonalLoop=1;jettySize=auto;html=1;exitX=1;exitY=0.5;exitDx=0;exitDy=0;" edge="1" parent="IYhv0B1hFavdMKHums5u-57" source="IYhv0B1hFavdMKHums5u-92" target="IYhv0B1hFavdMKHums5u-89">
          <mxGeometry relative="1" as="geometry">
            <Array as="points">
              <mxPoint x="260" y="715" />
              <mxPoint x="260" y="495" />
            </Array>
          </mxGeometry>
        </mxCell>
        <mxCell id="IYhv0B1hFavdMKHums5u-110" value="false" style="text;html=1;align=center;verticalAlign=middle;resizable=0;points=[];autosize=1;strokeColor=none;fillColor=none;" vertex="1" parent="IYhv0B1hFavdMKHums5u-57">
          <mxGeometry x="195" y="690" width="50" height="30" as="geometry" />
        </mxCell>
        <mxCell id="IYhv0B1hFavdMKHums5u-76" value="false" style="text;html=1;align=center;verticalAlign=middle;resizable=0;points=[];autosize=1;strokeColor=none;fillColor=none;" vertex="1" parent="1">
          <mxGeometry x="625" y="328" width="50" height="30" as="geometry" />
        </mxCell>
        <mxCell id="IYhv0B1hFavdMKHums5u-77" value="true" style="text;html=1;align=center;verticalAlign=middle;resizable=0;points=[];autosize=1;strokeColor=none;fillColor=none;" vertex="1" parent="1">
          <mxGeometry x="590" y="168" width="40" height="30" as="geometry" />
        </mxCell>
        <mxCell id="IYhv0B1hFavdMKHums5u-78" value="true" style="text;html=1;align=center;verticalAlign=middle;resizable=0;points=[];autosize=1;strokeColor=none;fillColor=none;" vertex="1" parent="1">
          <mxGeometry x="590" y="268" width="40" height="30" as="geometry" />
        </mxCell>
        <mxCell id="IYhv0B1hFavdMKHums5u-79" value="false" style="text;html=1;align=center;verticalAlign=middle;resizable=0;points=[];autosize=1;strokeColor=none;fillColor=none;" vertex="1" parent="1">
          <mxGeometry x="625" y="418" width="50" height="30" as="geometry" />
        </mxCell>
      </root>
    </mxGraphModel>
  </diagram>
</mxfile>
